<svg xmlns="http://www.w3.org/2000/svg" width="1322.835" height="1322.835" viewBox="0 0 350 350" xmlns:v="https://vecta.io/nano"><path d="M160.602 319.078c-20.465-1.047-32.501-4.31-38.136-10.337-1.798-1.923-2.601-3.778-3.93-9.083-1.265-5.05-1.865-6.693-4.592-12.577-2.002-4.318-2.668-7.251-2.229-9.812.489-2.855 1.167-3.907 4.771-7.406l3.303-3.206-1.554.234c-4.13.622-9.497 2.707-15.011 5.831-1.621.918-6.891 4.309-11.712 7.535-9.84 6.584-12.008 7.971-15.358 9.826-7.477 4.141-14.087 5.902-18.63 4.963-2.934-.606-5.28-1.961-11.496-6.637-3.099-2.331-6.805-4.895-8.236-5.698-2.194-1.23-2.615-1.572-2.686-2.179-.116-.994.432-1.137 2.82-.736 6.098 1.025 12.382-.3 20.665-4.357 5.157-2.525 10.055-5.494 21.578-13.077 11.136-7.329 11.946-7.837 16.14-10.131 3.775-2.065 8.137-3.958 11.104-4.817 8.464-2.453 16.686-.592 21.657 4.902 1.152 1.273 1.974 2.602 3.261 5.274 2.525 5.241 3.188 6.481 4.936 9.242 2.442 3.856 3.162 5.57 3.162 7.531 0 3.879-2.451 6.248-10.74 10.386-3.036 1.515-4.01 2.244-4.365 3.262-.267.766-.234.827.701 1.304 2.775 1.416 11.461 3.817 17.78 4.915 22.42 3.897 50.094 2.452 67.466-3.523 3.46-1.19 4.498-1.658 4.498-2.029 0-.65-1.742-1.863-5.425-3.776-6.131-3.185-8.921-5.726-9.657-8.795-.623-2.598-.023-4.354 3.294-9.64.975-1.554 2.846-5.039 4.158-7.744 2.293-4.732 2.467-5.001 4.544-7.064 2.468-2.451 4.256-3.5 7.723-4.532 2.057-.612 2.851-.707 5.946-.71 2.977-.003 3.991.107 6.085.66 7.174 1.895 12.248 4.621 28.443 15.286l13.594 8.716c7.558 4.54 14.489 7.563 19.743 8.611 2.533.505 7.108.532 9.129.054 1.805-.427 2.337-.328 2.538.473.219.874.028 1.086-1.83 2.02-2.205 1.109-4.941 2.966-8.928 6.06-7.89 6.122-10.786 7.364-15.945 6.84-7.147-.726-12.644-3.434-28.009-13.802-12.297-8.297-17.538-11.274-23.134-13.138-2.438-.812-6.448-1.671-6.448-1.381 0 .091 1.462 1.595 3.249 3.342 3.845 3.758 4.643 5.086 4.871 8.11.204 2.704-.305 4.445-2.7 9.225-2.638 5.266-2.863 5.87-4.393 11.769-.717 2.765-1.668 5.756-2.114 6.646-3.442 6.876-13.992 10.988-32.517 12.675-4.387.399-22.76.731-27.384.495zm8.202-26.936c-1.623-.721-2.514-2.235-2.514-4.274 0-.946-.091-1.173-.468-1.173-.257 0-.902-.295-1.434-.656-1.178-.801-2.089-2.626-2.876-5.765-.317-1.264-.788-2.475-1.057-2.719-.456-.412-.527-.397-1.177.252-.38.38-.815 1.047-.967 1.482s-.373.791-.492.791c-.405 0-1.85-2.22-2.403-3.692-.795-2.114-.641-4.805.36-6.318 1.202-1.817 2.569-2.542 5.002-2.652l2.07-.094v-6.415-6.415l2.67.602c2.948.664 7.401 1.32 10.758 1.585l2.183.172v5.264 5.264h1.596c1.818 0 3.225.501 4.315 1.535 2.592 2.46 2.535 6.185-.154 10.153l-.839 1.238-.739-1.294c-1.5-2.626-2.182-2.262-3.235 1.723-.384 1.451-1 3.155-1.371 3.787-.686 1.171-1.981 2.171-2.814 2.172-.38 0-.463.242-.463 1.354 0 3.271-3.064 5.378-5.953 4.094zm3.506-2.419c.84-.955.774-2.097-.178-3.049-1.33-1.33-3.458-.738-3.855 1.072-.518 2.36 2.426 3.802 4.034 1.976zm-3.941-5.257c.719-.372 1.361-1.39 1.361-2.16 0-.217-.238-.862-.529-1.432s-.529-1.221-.529-1.445c0-1.209 1.952-1.869 3.116-1.054.696.487.744 1.164.164 2.287-.233.451-.436 1.234-.45 1.74-.036 1.282 1.25 2.441 2.71 2.441 1.58 0 2.494-1.075 3.333-3.92 1.004-3.402 1.396-4.395 1.989-5.031.765-.821 1.896-.738 2.987.219l.903.793.319-.771c1.431-3.456.089-6.484-3.031-6.835-2.275-.256-3.665.861-4.612 3.708-.933 2.803-1.726 3.417-3.137 2.429-1.085-.76-.788-1.86 1.184-4.382 2.359-3.017 2.083-4.868-1.228-8.236-1.109-1.128-2.137-2.051-2.285-2.051-.453 0-3.247 2.626-4.076 3.832-.936 1.36-1.315 2.872-1.011 4.029.123.467.876 1.716 1.674 2.777 1.061 1.41 1.451 2.158 1.451 2.783 0 1.61-2.14 2.215-2.855.808-.168-.331-.563-1.306-.877-2.165s-.952-1.979-1.418-2.488c-.729-.795-1.049-.94-2.281-1.033-3.42-.257-5.302 2.696-4.054 6.36.232.681.461 1.238.509 1.238s.444-.357.881-.794c1.618-1.618 3.276-.794 4.128 2.05 1.264 4.214 1.587 4.996 2.41 5.821.959.961 2.023 1.119 3.253.483zm128.947-11.224c-.269-.17-.143-.945.59-3.653.512-1.89 1.112-3.949 1.333-4.576.531-1.504.507-1.778-.106-1.224-.597.541-2.129 3.428-2.817 5.311-1.053 2.882-2.28 3.945-3.819 3.307-.437-.181-.794-.376-.794-.435s.281-.55.624-1.092 1.432-2.356 2.421-4.029c2.513-4.255 3.625-5.597 6.294-7.592 3.555-2.657 4.529-4.438 5.224-9.555.334-2.458.292-4.388-.261-12.14-.298-4.17-.576-5.33-1.488-6.184-.61-.573-.89-.636-2.514-.574-2.283.087-4.265-.54-7.454-2.36-4.655-2.656-9.755-7.181-12.389-10.992-2.607-3.772-3.585-6.87-3.366-10.661l.123-2.118h-2.017c-1.11 0-2.718.183-3.574.406-4.606 1.2-6.529 3.782-6.592 8.855-.043 3.391.364 4.663 2.122 6.632.78.874 1.419 1.805 1.419 2.068 0 1.065.201.969-17.283 8.253-14.994 6.247-14.298 6.092-16.554 3.692-1.798-1.913-2.602-2.273-3.879-1.74-1.117.467-1.196 1.187-.252 2.309.873 1.037 1.062 1.895.69 3.135-.426 1.421-2.037 2.727-4.074 3.302-1.661.469-7.597.893-7.597.542 0-.104.706-1.401 1.569-2.881 3.041-5.216 2.252-5.676-1.438-.839l-2.422 3.175-1.698-.09c-.934-.05-1.758-.153-1.831-.23s2.173-2.378 4.992-5.114c6.61-6.418 7.292-6.794 14.386-7.928 10.238-1.637 15.529-2.93 19.409-4.745s5.18-3.535 4.626-6.117c-.431-2.009-.919-2.759-3.652-5.615-3.401-3.554-3.869-4.584-3.994-8.789-.161-5.401.974-8.59 4.098-11.512 3.661-3.425 9.136-5.09 17.995-5.473 2.084-.09 3.788-.209 3.788-.264s-.312-.721-.694-1.48c-.414-.824-1.614-2.291-2.977-3.638-2.698-2.669-5.59-4.305-9.559-5.408-8.616-2.394-13.123-7.175-14.883-15.785l-.579-2.833-2.786-.16c-6.038-.346-9.416-.705-12.601-1.338-4.142-.824-4.374-.822-5.406.046-1.157.973-.985 1.746 1.21 5.446 3.627 6.112 3.699 6.203 5.07 6.409 1.414.212 2.722 1.324 2.722 2.314 0 .346-.373 1.137-.829 1.757-.715.973-.789 1.215-.535 1.772.22.482.501.645 1.116.645.671 0 .878-.146 1.122-.793.361-.957 1.269-1.194 3.799-.99 1.999.16 2.29.377 4.582 3.412 1.408 1.864 3.092 4.897 2.852 5.136-.056.056-.749-.147-1.541-.451-2.325-.891-5.575-1.817-6.381-1.817-1.195 0-.869.446.774 1.06a30.73 30.73 0 0 1 3.041 1.378l1.519.809-.167 1.486c-.092.817-.196 1.521-.231 1.564s-.584-.272-1.22-.701c-1.63-1.099-6.293-3.515-9.006-4.666-3.664-1.555-4.077-2.03-7.099-8.17a252.82 252.82 0 0 0-5.443-10.329c-1.664-2.951-2.867-5.391-2.935-5.953-.1-.83.092-1.239 1.506-3.201.892-1.237 1.731-2.362 1.865-2.5s2.442-.257 5.205-.265c4.236-.012 5.125-.085 6.086-.505.618-.27 1.124-.537 1.124-.592s-1.173-1.464-2.607-3.131-3.726-4.49-5.093-6.274c-3.546-4.627-4.358-5.474-5.449-5.678-1.135-.213-2.739.238-3.385.951-.265.292-.559.531-.654.531s-1.026-.94-2.069-2.09l-1.896-2.09 1.408-1.063a64.16 64.16 0 0 0 2.945-2.408l1.537-1.345h2.49c2.8 0 3.161.129 4.836 1.724.655.624 2.476 2.154 4.048 3.401l2.857 2.267 1.067-.773c3.786-2.742 8.292.703 7.779 5.948l-.155 1.588 2.381 2.059 2.381 2.06.159-.737c1.038-4.795 2.974-9.304 5.862-13.655 1.312-1.977 1.793-2.938 1.808-3.618.021-.918 3.719-13.15 4.109-13.591.111-.126 1.601.32 3.311.992s3.199 1.221 3.309 1.221 1.192-.747 2.404-1.661 4.049-2.716 6.304-4.005c5.86-3.349 7.558-4.492 9.613-6.473 2.491-2.4 3.193-3.814 3.186-6.415-.005-1.648-.136-2.285-.72-3.478-.897-1.833-1.598-2.528-1.22-1.209 1.436 5.008-3.149 10.268-8.999 10.323-1.939.018-3.17-.465-5.273-2.069-1.329-1.014-1.941-1.09-3.096-.386-.743.453-.834.658-.979 2.209-.208 2.229-.821 3.71-1.943 4.695-.499.438-1.001.797-1.114.797s-.158-.685-.1-1.521-.029-1.87-.193-2.296l-.299-.775-.533.533c-.362.362-.625 1.162-.818 2.495-.348 2.393-1.192 4.153-2.512 5.241-.977.806-2.635 1.532-2.897 1.27-.074-.073.064-.71.305-1.415a14.51 14.51 0 0 0 .581-2.63c.177-1.68-.308-2.005-1.497-1.004-1.118.941-2.121.784-2.722-.426-.352-.708-.663-.957-1.323-1.058-1.224-.188-1.287-1.03-.15-1.987.48-.404 2.314-1.415 4.074-2.248 3.393-1.604 4.255-2.346 3.771-3.249-.244-.456-.469-.503-1.773-.372-1.169.118-2.421.62-5.756 2.31-2.344 1.187-4.487 2.116-4.762 2.064-.408-.078-.53-.411-.662-1.813-.089-.945-.305-2.172-.48-2.727s-.243-1.355-.15-1.777c.313-1.424 4.858-5.092 10.534-8.5 1.895-1.138 3.663-2.138 3.929-2.222s.484-.346.484-.581c0-.735 1.016-2.561 1.646-2.961.331-.21 2.182-.994 4.113-1.742l3.51-1.361-7.479-9.377-22.254-28.046c-.407-.624-.375-1.561.053-1.557.529.005 3.093 2.441 18.662 17.725l17.337 16.879c.474.165 1.149-3.639 1.025-5.777l-.121-2.091 1.072.587c.59.323 2 1.467 3.133 2.543 1.604 1.522 2.295 2.423 3.117 4.066.581 1.161 1.056 2.262 1.056 2.448 0 .476.62.659 2.228.659 2.308 0 5.342.944 8.94 2.781 3.412 1.742 4.073 1.933 4.989 1.443.449-.241.511-.184.506.463-.003.405-.212.994-.463 1.307-.574.716-2.16 1.676-2.772 1.677-.88.002-.458.408.926.892 3.416 1.195 5.896 3.355 8.069 7.027 1.933 3.267 2.963 4.376 4.645 5.004l1.361.508-.919.576c-.748.468-1.227.558-2.573.483-.909-.051-1.654-.055-1.654-.009s.29.544.645 1.105c1.046 1.656 1.933 4.002 2.416 6.389.371 1.832.42 2.996.273 6.476-.212 5.029.024 6.513 1.308 8.194.772 1.012.829 1.184.432 1.31-1.182.375-3.967-1.094-5.609-2.96l-1.108-1.259.169.926c.464 2.551.47 5.966.016 9.998-.357 3.174-.407 4.494-.202 5.303.314 1.238.245 1.367-.727 1.367-1.268 0-2.438-1.047-3.451-3.092l-.943-1.901-.736 2.298-.856 2.6c-.066.166.476.761 1.204 1.323s1.329 1.083 1.335 1.158c.01.119-7.698 8.574-9.385 10.293-.54.551-.688.59-1.058.283-.498-.413-.787-.118-3.047 3.106-2.102 3-2.764 4.631-2.768 6.822-.003 1.668.12 2.111 1.214 4.373 1.43 2.957 3.268 5.834 6.61 10.343l2.591 3.458c.091.102.126-.509.077-1.36-.123-2.15.879-4.013 2.655-4.937 1.203-.626 3.866-.476 5.434.305 3.712 1.85 5.465 6.42 3.651 9.517-1.244 2.123-4.295 2.971-6.823 1.897-.546-.232-.992-.372-.992-.311s1.056 1.513 2.346 3.228c3.518 4.673 5.324 7.487 7.435 11.583 3.173 6.157 5.639 9.38 8.22 10.742 1.781.94 4.585.886 6.799-.131 1.924-.884 3.804-2.748 4.64-4.6.769-1.705.939-5.82.346-8.359-1.237-5.293-3.81-8.981-10.472-15.007-8.292-7.502-11.141-10.742-13.121-14.924-1.814-3.831-2.085-5.161-2.077-10.186.008-5.047.285-6.131 2.373-9.272 2.047-3.079 5.557-5.577 9.122-6.493 3.39-.871 7.367-.108 9.878 1.896.813.649 1.129.725 3.127.753 1.847.026 2.474.155 3.709.759 2.477 1.212 3.485 3.035 4.441 8.028 1.09 5.697 2.122 7.598 4.64 8.548 1.128.426 1.245.531.794.719-1.117.465-4.17.224-5.556-.44-1.897-.907-4.322-3.472-5.565-5.887-.572-1.11-1.077-1.981-1.124-1.934s.102.89.331 1.874c.983 4.24 3.406 6.946 9.119 10.187 1.916 1.087 4.04 2.396 4.72 2.908 2.203 1.661 3.19 3.786 2.815 6.06-.125.758-.244 1.012-.318.68-.428-1.904-2.721-3.403-9.079-5.936-8.274-3.296-11.437-5.074-13.994-7.867-3.716-4.059-4.446-10.295-1.693-14.464.64-.97.649-1.031.188-1.371-.881-.65-2.683-1-4.22-.819-4.6.541-9.105 5.184-9.91 10.215-.473 2.952.318 7.223 1.934 10.452 1.756 3.508 3.921 6.007 9.729 11.228 7.683 6.906 10.348 9.962 12.319 14.122 1.503 3.172 2.033 5.642 2.055 9.576.017 3.062-.056 3.649-.666 5.349-.686 1.911-2.737 5.114-3.595 5.614-.365.213-.258.268.533.274 1.32.011 3.489-.84 4.773-1.871.998-.802 1.035-.811.847-.207-1.196 3.857-4.228 6.343-7.977 6.54-2.069.109-3.275-.184-4.679-1.137-.617-.419-1.392-.649-2.395-.711-.815-.051-1.482-.048-1.482.005s.409.768.909 1.588c1.631 2.675 3.583 4.154 5.945 4.504l1.216.18-1.847.917c-1.645.817-2.078.917-3.974.917-1.865 0-2.343-.106-3.87-.858-2.142-1.055-3.958-2.932-5.01-5.179-.908-1.94-1.42-4.398-1.201-5.766.108-.677.039-1.064-.23-1.288-.642-.533-3.07-4.471-4.008-6.502-1.432-3.099-2.309-2.778-2.57.939-.202 2.877-.853 5.164-2.823 9.9-2.015 4.845-2.508 6.87-2.124 8.717.602 2.894 2.663 6.039 4.953 7.556 1.511 1.001 1.943 1.002 3.785.011 1.703-.917 1.893-.94 2.466-.306.37.409.448 1.492.548 7.607.064 3.921.204 8.188.313 9.481l.197 2.351.491-.957c1.291-2.517 3.993-4.136 6.91-4.14 2.674-.004 4.203.893 5.073 2.975 1.673 4.004-2.302 8.928-7.208 8.928-1.991 0-3.223-.468-4.321-1.642l-.815-.872.183 3.099c.291 4.92-.565 8.232-2.379 9.203-.487.261-.688.19-1.428-.501-1.505-1.406-3.545-1.403-4.594.007-.651.874-.481 1.458.881 3.032.876 1.012 1.038 1.386 1.038 2.387 0 .653-.177 1.529-.393 1.947-.892 1.724-4.697 4.002-7.777 4.654-2.03.43-2.421.452-2.887.156zm24.053-23.996c3.088-1.09 4.717-4.577 2.935-6.285-.405-.388-1.121-.783-1.59-.877-2.793-.559-6.466 2.546-6.049 5.114.181 1.113.587 1.634 1.629 2.088 1.05.458 1.685.449 3.075-.041zm-30.384-33.021c1.192-.499 2.752-2.319 3.102-3.619.764-2.839-1.416-5.113-4.064-4.239-1.234.407-2.975 2.341-3.345 3.715-.812 3.017 1.556 5.295 4.307 4.143zm10.668-16.59c1.366-.661 2.368-1.921 2.794-3.511.825-3.083-1.654-5.351-4.356-3.986-1.88.95-3.096 2.745-3.096 4.571 0 1.503.39 2.332 1.382 2.937 1.1.671 1.871.668 3.275-.012zm6.371-21.479c1.002-1.002 1.072-2.314.217-4.061-1.521-3.109-5.474-4.28-6.932-2.054-.459.7-.513 2.26-.116 3.305.414 1.09 1.912 2.641 3.076 3.185 1.358.635 2.899.481 3.755-.375zm-10.484-36.253l3.938-4.256.676-.751-1.323-1.162c-.728-.639-1.401-1.164-1.495-1.167s-.259.739-.364 1.648-.271 1.869-.368 2.132c-.167.453-.202.451-.653-.049-.262-.29-.629-.969-.814-1.509l-.338-.982-1.225 1.56-1.225 1.56 1.047.183c1.301.227 2.192.688 2.065 1.068-.168.505-1.877 1.263-2.846 1.263-1.591 0-4.646-1.936-5.421-3.435-.525-1.016-.154-2.04.83-2.287.869-.218 1.969.329 2.339 1.164.144.324.401.589.572.589.505 0 1.681-1.576 1.681-2.255 0-1.003-1.057-2.024-2.124-2.052l-.919-.024 1.491-1.487c1.253-1.249 1.544-1.723 1.822-2.966.432-1.929.201-2.956-.609-2.711-2.2.663-3.637 1.986-4.521 4.163l-.601 1.478-.331-.916c-.688-1.902-2.741-2.201-3.75-.547-.759 1.244-.672 1.761.295 1.761.999 0 2.105 1.037 2.105 1.972 0 3.307-6.604 1.323-7.307-2.196-.172-.862.338-3.216.697-3.216.319 0 1.054 1.734 1.054 2.487 0 .378.089.683.198.678s.752-.928 1.429-2.051l1.231-2.041-1.628-.132-1.628-.132.926-.898a7.88 7.88 0 0 1 1.978-1.345l1.052-.448-2.547-1.499c-1.401-.824-2.588-1.499-2.639-1.498s-.092.943-.092 2.095-.099 2.194-.221 2.315c-.272.27-1.208-.836-1.565-1.851-.26-.737-.28-.717-1.439 1.416-.646 1.19-1.124 2.214-1.062 2.277s.435-.009.829-.159 1.139-.272 1.656-.272c.915 0 .93.016.551.595-.74 1.129-2.031 1.786-3.509 1.786-1.147 0-1.638-.17-2.957-1.022-1.781-1.151-2.453-2.27-2.049-3.413.495-1.4 2.702-1.349 3.571.083l.399.657.76-.793c1.025-1.069 1.027-2.245.006-3.123-.605-.521-.952-.621-1.766-.512l-1.013.136.76-.967c1.531-1.949 2.05-3.662 1.643-5.42-.303-1.308-.381-1.368-1.293-.99-1.851.767-3.484 3.363-3.487 5.542v.959l-.514-.843c-.652-1.07-1.429-1.486-2.383-1.276-.998.219-1.588.915-1.78 2.101-.153.94-.135.967.524.802.95-.238 2.237.568 2.45 1.535.231 1.052-.47 1.783-1.71 1.783-1.056 0-4.06-1.315-4.989-2.184-1.05-.981-1.449-3.901-.533-3.901.173 0 .764.439 1.313.975s1.039.923 1.088.86c.144-.186 1.243-2.948 1.244-3.127 0-.09-.714-.123-1.587-.073-1.032.058-1.588-.012-1.588-.201 0-.16.708-.796 1.573-1.413s1.58-1.195 1.588-1.284c.016-.182-2.776-1.294-3.25-1.293-.256 0-3.617 10.227-3.613 10.996 0 .137 5.675 3.523 12.61 7.524l17.924 10.368c2.924 1.7 5.449 3.099 5.611 3.109s1.763-1.56 3.557-3.489zm-57.364-2.249c1.307-1.37 1.599-3.169.827-5.098-.695-1.737-2.337-2.321-3.641-1.295-1.852 1.457-2.035 4.741-.364 6.525.816.871 2.278.81 3.177-.132zm28.75-52.465c1.075-.326 2.912-.73 4.083-.898l2.128-.304-2.155-1.264c-2.682-1.573-3.805-1.909-5.091-1.523-1.446.433-2.047 1.256-2.504 3.43l-.406 2.048c0 .066.448-.108.995-.387s1.875-.775 2.95-1.101zM30.556 272.179c-1.357-.725-1.949-1.911-1.931-3.863.017-1.766.46-2.887 1.707-4.319.936-1.074.953-1.633.074-2.458-.529-.497-.972-.641-1.965-.641-1.582 0-2.548.643-3.364 2.238l-.587 1.149-.519-1.211c-1.357-3.165-1.417-5.14-.272-8.825.893-2.872 1.202-5.67.83-7.507-.195-.963-.28-1.089-.447-.661-1.24 3.192-3.662 6.736-5.144 7.53-.375.2-.423.107-.336-.642.056-.482-.221-2.395-.617-4.251-.609-2.856-.7-3.805-.591-6.181.158-3.442.673-4.907 2.917-8.297 1.791-2.706 1.955-3.47 1.249-5.836-.332-1.112-.33-1.358.01-1.958.71-1.251 1.107-1.32 3.327-.574 1.672.561 2.239.641 3.236.455 1.731-.323 3.204-1.107 4.517-2.402 3.258-3.213 5.136-7.742 6.108-14.727 1.13-8.126 2.761-12.676 8.448-23.575 1.048-2.007 1.643-3.493 1.752-4.366.22-1.778.138-1.683-4.126 4.762-4.061 6.14-6.205 8.968-8.285 10.929-1.007.95-1.489 1.61-1.489 2.041 0 1.625-1.116 3.68-3.015 5.551-2.182 2.15-4.325 3.373-7.197 4.108-3.371.862-6.607.559-8.98-.841l-1.011-.596 1.711-.316c2.153-.397 3.44-.933 4.765-1.982 1.067-.845 1.997-2.268 1.687-2.579-.095-.096-.789-.296-1.541-.446-1.073-.213-1.567-.19-2.294.109-1.138.467-3.983.508-5.466.078-2.538-.736-4.961-3.11-5.299-5.191l-.168-1.035 1.24.89c.989.71 1.546.909 2.754.984 1.976.123 2.432-.16 1.805-1.118-.254-.388-.775-1.499-1.159-2.47-.634-1.606-.696-2.087-.686-5.337.009-3.169.093-3.826.744-5.821 2.047-6.279 5.264-10.726 15.177-20.987 9.724-10.064 12.468-13.623 14.176-18.384 1.858-5.179.791-9.89-2.66-11.745-2.33-1.253-4.646-1.191-7.76.206l-1.527.685 1.091 1.581c.991 1.436 1.1 1.758 1.188 3.51.265 5.244-2.305 9.707-7.573 13.156-2.285 1.496-5.722 3.191-10.64 5.247-8.779 3.671-12.332 6.198-13.662 9.718-.368.973-.376.928-.268-1.375.245-5.177 2.022-7.462 9.059-11.647 5.267-3.132 7.432-4.998 8.549-7.369.42-.892.852-2.038.96-2.547.192-.909.17-.896-1.175.714-1.457 1.743-3.882 3.784-5.851 4.923-1.628.942-4.264 1.591-5.567 1.371-1.206-.204-1.656-.659-.651-.659 1.872 0 3.775-1.616 5.238-4.447.503-.974 1.598-3.534 2.432-5.689 2.773-7.158 5.088-9.478 9.403-9.422.8.01 1.931.164 2.514.342 1.006.307 1.117.281 2.249-.518 5.807-4.103 12.275-3.941 16.628.419 3.907 3.912 4.326 10.667 1.082 17.452-2.295 4.8-5.003 8.148-14.138 17.477-3.638 3.715-7.379 7.705-8.313 8.866-4.565 5.674-6.636 10.355-6.636 14.998 0 4.048 1.513 6.895 4.42 8.317 1.289.631 1.81.73 3.764.721 2.56-.013 3.803-.39 5.924-1.797 3.671-2.437 7.656-7.613 14.07-18.277 3.398-5.649 6.371-10.289 9.045-14.116 2.709-3.878 5.48-9.219 7.638-14.724.684-1.746 2.723-7.402 4.53-12.568l4.448-12.303 1.357-3.44.194-.529-.605.529c-1.073.938-2.828 3.618-4.731 7.226-2.854 5.411-4.499 7.252-7.037 7.878l-.774.191.57-.922c.977-1.581 1.345-3.805 1.633-9.874.152-3.201.384-6.297.516-6.879s.564-2.319.96-3.859c.577-2.245.682-3.098.532-4.299-.103-.824-.304-1.499-.447-1.499-.559 0-1.862 3.513-2.609 7.034-1.875 8.839-2.409 10.56-3.863 12.466-.629.824-2.145 1.837-2.387 1.595-.061-.061.069-.542.289-1.069.547-1.309.503-2.377-.264-6.506-1.127-6.067-.803-8.773 1.727-14.415 1.615-3.602 2.376-6.002 2.376-7.494 0-2.029-1.464-.145-2.945 3.791-.596 1.584-1.309 3.323-1.584 3.864-1.175 2.311-3.29 3.892-5.225 3.904l-.891.006.71-.93c1.428-1.872 1.774-3.108 2.026-7.24.13-2.127.312-4.225.403-4.662.291-1.383 1.315-3.432 2.244-4.49.494-.562.776-1.062.628-1.112-.857-.286-3.663-2.381-4.35-3.248-1.017-1.284-1.85-3.102-1.857-4.055-.005-.589.241-.89 1.251-1.531 1.343-.852 3.678-1.658 5.629-1.942l1.197-.174-.097-1.017c-.114-1.195.365-2.238 1.569-3.415l.862-.842.847.925c.466.509.921.925 1.012.925s1.563-.845 3.272-1.877c6.098-3.685 12.587-6.324 20.434-8.31 1.526-.386 2.869-.842 2.984-1.012s.139-.816.053-1.435l-.156-1.124 1.141.002c2.181.003 3.796.821 4.238 2.147.05.149.62-.035 1.274-.412 1.529-.881 4.269-1.737 5.559-1.737.984 0 1.026.039 1.558 1.462.791 2.113.949 4.619.442 7.005-.232 1.091-.421 2.06-.422 2.151s.548.305 1.217.474 2.188.796 3.373 1.394c1.369.69 2.687 1.147 3.611 1.251l1.455.164-.914.85c-1.598 1.487-2.43 1.736-5.282 1.585-1.395-.074-2.774-.214-3.065-.312s.304.262 1.323.799c3.164 1.668 5.83 4.015 8.99 7.915 2.869 3.541 5.072 5.424 6.345 5.424.748 0 .42.418-.79 1.006-1.523.74-3.787.77-5.329.069-.607-.275-2.014-1.116-3.128-1.867-2.261-1.526-4.493-2.641-5.294-2.644-.3-.001.447.578 1.72 1.335 4.861 2.891 7.675 5.501 11.485 10.657 1.749 2.366 2.549 3.229 3.274 3.532l.96.401-1.047.634c-.768.465-1.436.634-2.507.635-1.281.001-1.914-.226-5.155-1.851-2.032-1.019-3.856-1.852-4.053-1.852s.575.693 1.715 1.541c3.919 2.912 6.787 6.294 8.066 9.509.483 1.215.611 2.085.642 4.36.035 2.582.101 2.934.717 3.836.848 1.243 1.172 2.491 1.401 5.395l.18 2.285 1.115-.493c.613-.271 2.2-.784 3.526-1.138l2.41-.645-2.758 3.197c-5.496 6.372-8.472 11.122-12.106 19.32l-.325.734-3.77-3.567c-3.974-3.761-4.777-4.243-6.78-4.073l-1.025.087 1.686 1.87 8.594 9.393c8.893 9.685 9.774 10.695 10.71 12.285.986 1.676 1.473 3.355 1.832 6.315.31 2.556.777 3.64 2.798 6.492 1.193 1.684 1.2 1.706 1.026 3.33-.154 1.439-.092 1.799.513 2.993 1.358 2.68.7 4.518-2.112 5.903-.94.463-1.761.789-1.824.726s.053-.587.258-1.163c.516-1.45.483-2.226-.139-3.246-.514-.843-2.509-2.015-2.958-1.737-.116.071-.21.772-.21 1.557 0 3.578-2.826 6.123-6.064 5.461l-.905-.185.667-.437c.367-.24.871-.869 1.122-1.396.457-.963.611-3.346.283-4.379-.157-.495-.237-.455-.909.46-1.527 2.079-3.079 2.987-5.104 2.987-1.408 0-2.727-.685-3.747-1.945-.907-1.121-.831-1.344.322-.943.681.237 1.012.202 1.827-.197 1.319-.646 1.755-1.521 1.247-2.503-.208-.401-.592-.886-.855-1.077-2.288-1.661-1.72-4.356 1.269-6.02 1.978-1.101 2.755-2.231 2.538-3.687-.195-1.3-.839-1.885-2.076-1.885-.834 0-1.224.181-1.943.9-.495.495-.9 1.143-.9 1.44 0 .906-.482.901-.953-.01-.385-.744-.425-1.444-.294-5.102.134-3.724.111-4.093-.186-3.036-.486 1.731-1.099 2.536-2.828 3.709-.84.571-1.602 1.157-1.692 1.303s-.272.266-.404.266c-.562 0-.848-1.341-1.043-4.886-.251-4.567-.547-5.391-1.168-3.254-.235.809-.904 2.105-1.487 2.88s-1.059 1.554-1.059 1.731c0 .587-.419.597-2.136.053-4.63-1.468-11.659-.622-14.467 1.742l-.857.721 1.52 1.116c.836.614 3.544 2.471 6.018 4.127 7.481 5.008 10.447 8.501 11.247 13.248s-.709 7.445-6.863 12.273c-4.947 3.881-5.896 5.318-5.158 7.805 1.475 4.967 10.992 13.527 17.119 15.398 2.266.692 3.217.526 4.759-.832.654-.576 1.509-1.168 1.899-1.317.812-.309 3.331-.324 5.375-.033 1.577.225 2.974 1.308 2.974 2.306 0 .444.236.669.949.905 3.425 1.13 4.895 5.402 2.783 8.088l-.491.624-.644-1.251c-1.075-2.09-3.07-2.953-5.069-2.193-.639.243-.651.299-.51 2.362.134 1.952.091 2.205-.565 3.324s-2.893 2.786-3.754 2.793c-.185.003-.112-.524.203-1.456.272-.805.421-1.745.332-2.097-.416-1.657-2.5-2.073-3.858-.77-.762.731-.885.757-3.967.843-1.976.055-3.448-.025-3.886-.21-.388-.165-1.241-1.038-1.895-1.941-1.776-2.449-2.841-3.55-3.734-3.861-.707-.246-.882-.199-1.477.395-.566.566-.652.844-.532 1.733.078.582.36 1.305.627 1.606l.485.547-1.492-.149c-2.378-.237-4.263-1.447-5.254-3.374-.264-.512-.863-2.298-1.333-3.969-.947-3.369-1.739-4.984-2.779-5.665l-.693-.454.159 2.996c.088 1.648.058 3.413-.065 3.922l-.224.926-1.833-1.852c-3.224-3.258-4.842-6.235-5.536-10.183-.466-2.652-.783-3.241-2.397-4.461-1.216-.919-1.308-1.069-1.308-2.142v-1.154l1.747-.708c2.192-.888 3.249-1.636 4.237-3 2.234-3.083 2.186-9.718-.101-14.044-.877-1.659-3.707-4.689-5.152-5.515l-.806-.461.012 5.62c.013 6.115-.363 9.217-1.533 12.656-3.204 9.421-12.11 17.885-23.622 22.45-3.987 1.581-5.774 2.549-7.266 3.938-1.984 1.846-2.568 3.305-2.571 6.427-.01 9.469 4.429 17.753 9.988 18.642 1.663.266 2.327-.023 4.29-1.866 2.013-1.891 2.72-2.143 5.398-1.928 1.793.144 3.551.907 4.07 1.767.255.421.601.551 1.469.551 1.46 0 3.621 1.067 4.222 2.085.551.933.597 2.898.095 4.075-.422.99-1.362 1.902-2.233 2.167-.577.175-.602.134-.439-.735.098-.524.045-1.16-.124-1.475-.649-1.212-3.233-1.803-4.099-.938-.506.506-.505.445-.019 1.609.591 1.414.518 3.935-.146 5.008-.592.958-1.806 1.814-2.992 2.11-.703.175-.735.15-.463-.359.426-.795.362-1.307-.236-1.905-.982-.982-1.93-.698-3.989 1.191-1.031.946-2.174 1.795-2.54 1.887-.943.237-3.426-.065-5.685-.691-3.077-.853-5.99-.615-7.299.595-.651.602-.776 1.494-.278 1.992.528.528-1.38.391-2.438-.175zm56.983-160.545c2.952-1.495 3.612-4.509 1.778-8.123-1.187-2.339-1.8-2.86-3.656-3.111-1.785-.241-2.832-1.169-3.134-2.777-.247-1.317.273-2.137 2.045-3.219.78-.476 1.444-.953 1.476-1.058s-.403-.405-.968-.665c-1.157-.533-1.464-1.049-1.067-1.792.406-.758 1.48-.91 2.999-.425 2.23.713 2.358-.372.249-2.101-.868-.712-1.458-.992-2.04-.972-.866.03-12.04 4.215-13.402 5.02-.912.539-1.146 1.194-1.163 3.256-.01 1.283.054 1.465.546 1.535.408.058.646-.134.889-.72.535-1.291 1.474-2.137 2.372-2.137 1.026 0 1.285.84.695 2.252-.231.552-.388 1.036-.349 1.075s.874-.121 1.856-.356c2.151-.515 2.962-.308 3.826.974 1.003 1.489.775 3.039-.675 4.594-.833.893-.845 1.921-.054 4.47 1.245 4.012 4.629 5.875 7.777 4.281zM68.225 90.01c1.161-.485 2.438-2.08 2.793-3.489.33-1.311.383-3.469.09-3.637-.109-.062-1.568.41-3.241 1.05s-4.055 1.469-5.292 1.843l-2.646.814c-.255.087-.051.259.57.482 1.116.399 2.04.957 3.531 2.132 1.613 1.271 2.619 1.464 4.195.805zm19.033-7.486c1.032-.527 1.718-1.781 1.922-3.51.095-.81.447-2.163.781-3.008s.53-1.498.435-1.452l-3.216 1.556c-1.673.81-4.025 1.864-5.226 2.342s-2.183 1.016-2.183 1.195c0 .469 1.727 2.181 2.724 2.701 1.761.917 3.207.971 4.762.176zm208.335 170.981c-3.897-1.39-5.627-5.051-3.834-8.111 1.861-3.176 7.196-3.797 10.556-1.229 3.61 2.76 2.898 7.849-1.308 9.352-1.26.45-4.136.444-5.414-.012zm4.396-2.118c1.934-.69 2.787-1.969 2.299-3.448-1.006-3.05-6.2-4.13-8.336-1.734-.363.407-.529.968-.529 1.787 0 1.074.114 1.294 1.146 2.21 1.599 1.419 3.562 1.848 5.42 1.185zm-125.043 1.947c-8.34-.881-20.21-4.273-27.105-7.745l-1.896-.955-1.309.658c-1.759.884-4.368.916-6.103.076-2.528-1.224-4.779-4.39-4.784-6.729-.002-1.024-.147-1.233-2.281-3.307-7.396-7.189-12.943-15.936-16.838-26.556-1.076-2.935-2.866-10.034-2.557-10.144.139-.049.626.04 1.081.198 1.199.418 3.784.354 4.924-.122.541-.226 1.301-.715 1.69-1.087.863-.827 1.278-.626 1.278.618v.94l1.246-.187c3.27-.49 6.318-2.585 7.558-5.195l.63-1.325.34 1.934c.187 1.064.751 3.304 1.254 4.977 2.397 7.984 6.281 14.743 11.697 20.36 2.021 2.096 2.057 2.118 2.954 1.861 4.375-1.255 9.485 2.675 9.504 7.309l.006 1.352 3.77 1.615c15.557 6.662 30.733 10.922 39.181 10.999l3.132.028-1.353 1.247c-3.257 3-10.031 6.872-14.435 8.249-3.927 1.229-6.678 1.45-11.585.931zm2.117-4.123c2.438-1.157 2.593-4.667.268-6.041-1.003-.592-2.618-.602-3.504-.021-2.422 1.587-2.13 4.947.533 6.131 1.06.471 1.595.458 2.703-.068zm-33.716-5.192l.737-.319-2.132-1.275c-2.58-1.543-3.031-2.139-2.847-3.768.107-.952 1.112-3.046 2.186-4.554.028-.04.693.227 1.479.593 1.651.769 2.528.836 3.353.258 1.091-.764.738-2.383-.892-4.09l-.888-.93 1.476-1.657c2.46-2.762 4.074-3.147 6.352-1.514 2.096 1.502 2.212 1.553 2.212.969 0-.87-1.706-3.043-3.039-3.87-2.8-1.739-6.207-.633-10.361 3.362l-1.097 1.055-1.389-.298c-.764-.164-1.439-.248-1.501-.186s.189.704.556 1.429l.668 1.317-.913 1.686c-1.104 2.038-1.976 4.701-1.968 6.013.017 2.878 3.318 6.123 6.212 6.106.582-.003 1.39-.15 1.795-.325zm18.11-.786c1.183-1.183 1.45-2.964.664-4.427-.683-1.271-2.565-2.218-3.908-1.966-1.38.259-2.631 1.447-3.032 2.88-.305 1.089-.281 1.289.295 2.433.813 1.616 1.993 2.284 3.762 2.13 1.035-.091 1.463-.293 2.219-1.049zm170.292.593c-1.972-.781-3.626-2.357-4.645-4.427-.751-1.525-.865-2.026-.858-3.756.014-3.453 1.783-6.328 4.919-7.995.98-.521 1.543-.612 3.797-.614 2.233-.002 2.839.093 3.887.609 1.727.851 3.314 2.476 4.142 4.242.897 1.913.982 5.002.194 7.045-.641 1.661-2.528 3.695-4.25 4.579-1.85.95-5.215 1.098-7.187.317zm6.189-2.416c3.896-1.853 4.737-7.201 1.624-10.328-2.217-2.227-5.047-2.592-7.818-1.01-1.512.864-2.286 1.795-2.873 3.457-1.257 3.562.955 7.53 4.724 8.471 1.169.292 3.014.041 4.343-.591zm-53.21-.346c-2.411-.86-3.875-3.324-3.855-6.492.025-4.086 2.249-6.876 5.483-6.878 3.443-.002 5.612 2.633 5.612 6.818 0 1.696-.124 2.322-.679 3.436-.815 1.636-2.121 2.845-3.481 3.223-1.287.357-1.829.339-3.08-.107zm3.007-2.433c2.327-1.374 2.711-5.507.711-7.653-1.124-1.206-2.161-1.389-3.343-.592-1.373.927-1.96 2.127-1.969 4.026-.016 3.432 2.314 5.569 4.601 4.218zm-91.458 1.363c-4.942-.744-14.376-3.067-14.376-3.54 0-.115.231-1.112.513-2.215.972-3.799 2.178-5.425 5.256-7.083 11.334-6.105 19.897-18.609 22.643-33.065.51-2.685 1.053-8.1.862-8.597-.137-.356-2.392-.395-19.543-.335l-19.388.068v21.696 21.696l4.414.366 4.414.366-.747 1.353c-.786 1.423-1.181 2.561-1.453 4.184l-.164.979-3.089-1.065c-3.232-1.114-9.736-3.565-10.163-3.829-.645-.399 2.364-2.215 3.68-2.22l.595-.003v-21.828-21.828h-19.912-19.912l-.473-2.106c-.334-1.485-.745-2.48-1.393-3.373-1.63-2.245-2.239-3.82-2.507-6.483-.427-4.238-1.931-6.649-8.524-13.66-2.115-2.25-2.098-1.88-.286-6.017 4.468-10.203 11.788-19.47 20.525-25.986l2.737-2.041-1.283-1.008c-2.354-1.849-3.534-4.388-3.292-7.082.146-1.627.694-2.909 1.707-3.993l.663-.709-1.122-3.128c-2.425-6.759-5.854-13.7-8.489-17.181-1.262-1.668-1.278-1.711-.7-1.939.325-.128 2.015-.839 3.756-1.579s3.252-1.347 3.359-1.347-.082.625-.418 1.389c-1.079 2.447-1.57 6.1-.951 7.078.361.57 2.99-2.079 3.895-3.925l.692-1.411.618 2.141c.525 1.817.913 2.872 2.143 5.821.118.283.03.327-.352.179-1.711-.666-3.555-.954-4.602-.719-.609.137-1.188.331-1.286.431-.286.293 1.813 1.99 3.394 2.743 1.26.6 1.793.692 3.969.685 3.863-.013 6.972-1.395 7.846-3.489.671-1.607-.248-3.331-1.959-3.673-.67-.134-.959-.031-1.536.546-.625.625-.696.866-.587 2.002.113 1.176.082 1.269-.349 1.038-.846-.453-2.195-3.606-2.309-5.399-.093-1.459-.03-1.714.609-2.473.581-.69.906-.847 1.76-.847 1.925 0 3.332 1.151 4.827 3.948l.889 1.664.556-1.83c1.011-3.329 2.726-4.929 4.735-4.419 1.517.385 2.039 1.344 2.043 3.755.002 1.319-.173 2.551-.495 3.483l-.498 1.443-.591-1.34c-1.004-2.275-2.258-2.76-3.618-1.401-.715.715-.79.933-.657 1.918.309 2.301 2.896 3.625 7.081 3.625 3.491 0 5.491-.705 7.384-2.605 1.166-1.17 1.582-1.814 1.905-2.952.227-.8.327-1.551.221-1.667-.484-.535-4.97 1.814-6.157 3.224l-.596.708v-5.341-5.341l1.323 1.246c1.392 1.311 3.122 2.28 4.601 2.575.837.167.874.143.696-.458-.414-1.399-1.953-3.561-3.675-5.162l-1.818-1.69h7.203 7.203l-1.997 1.865c-1.377 1.286-2.248 2.367-2.805 3.482-1.145 2.291-1.102 2.399.713 1.774 1.76-.606 3.304-1.562 4.432-2.746l.794-.833v5.213 5.213l-1.073-.989c-1.088-1.003-3.858-2.494-5.24-2.819-.742-.175-.753-.161-.568.718.874 4.163 3.823 6.294 9.03 6.524 3.293.145 5.229-.334 6.666-1.651.856-.785.975-1.043.975-2.127 0-1.024-.126-1.343-.742-1.872-.408-.351-.965-.639-1.236-.639-.798 0-2.054 1.25-2.45 2.439l-.367 1.102-.466-1.165c-.622-1.555-.846-4.412-.442-5.637.373-1.131 1.404-2.032 2.326-2.032 1.839 0 3.362 1.544 4.178 4.233l.561 1.841c.07.226.45-.268.915-1.191 1.818-3.609 4.606-5.088 6.507-3.451.679.585.742.793.741 2.447-.002 1.998-.861 4.202-2.088 5.354l-.645.606.14-1.041c.269-2.008-1.157-3.464-2.702-2.76-.904.412-1.57 1.569-1.57 2.728 0 1.361 1.252 2.627 3.534 3.574 1.492.619 2.13.727 4.392.74 2.329.013 2.82-.068 4.101-.68 1.873-.895 3.723-2.569 3.167-2.866-1.196-.639-2.506-.545-5.48.392-.587.185-.584.167.197-1.729.434-1.054 1.035-2.764 1.335-3.801l.667-2.249c.067-.201.478.348.916 1.225.45.901 1.387 2.143 2.162 2.868l1.368 1.279.224-.785c.426-1.493-.183-4.903-1.262-7.067l-.626-1.255.848.359 3.891 1.629 3.166 1.372c.068.056.008.259-.132.451-3.811 5.209-6.9 11.292-9.508 18.722l-.991 2.824.69.745c1.054 1.137 1.576 2.439 1.697 4.232.175 2.589-.461 4.1-2.62 6.23l-1.799 1.774 1.798 1.307c4.862 3.536 8.837 7.362 12.821 12.342 2.24 2.799 4.669 6.403 4.669 6.928 0 .172-.744 1.227-1.654 2.345-2.439 2.996-2.835 3.736-2.84 5.314-.004 1.142.227 1.792 1.455 4.101.803 1.509 3.202 6.194 5.331 10.41 3.73 7.385 3.943 7.739 5.841 9.657l1.97 1.991-.136 5.821c-.146 6.246-.52 9.567-1.633 14.533-2.516 11.218-7.243 21.022-14.296 29.653-2.348 2.873-7.791 8.251-9.639 9.525-1.065.734-1.342.797-3.689.843a35.67 35.67 0 0 1-4.962-.316zm-26.547-80.735v-23.456l-2.447.17c-7.914.551-15.784 4.261-22.255 10.493-5.02 4.834-8.162 9.381-10.88 15.743-2.278 5.333-3.79 11.76-4.248 18.058l-.178 2.447h20.004 20.004zm-32.258 20.056c-.18-.336-.264-.774-.188-.973.09-.235.005-.311-.242-.216-.21.081-.454-.043-.543-.277s-.269-.357-.399-.276-.237.028-.237-.116.268-.346.595-.448c.756-.236 1.057-.696.647-.989-.185-.133.012-.155.477-.054.437.095.825.254.864.352.347.882.561.958 1.771.634.665-.178 1.553-.323 1.974-.323.635 0 .742-.09.627-.529-.086-.329-.361-.529-.728-.529-.324 0-.816-.25-1.093-.556-.625-.691-1.768-1.296-2.448-1.296-.283 0-.586-.188-.675-.419-.247-.644-.195-.733.225-.385.595.493.933.109.582-.661-.202-.442-.463-.631-.769-.554-.345.087-.463-.046-.463-.52 0-.35.116-.637.258-.637.166 0 .168-.236.007-.661-.293-.771.07-.894.719-.245.328.328.461.345.625.079.115-.186.134-.462.043-.615s.04-.11.292.094c.357.29.422.611.294 1.46-.155 1.031-.107 1.134.9 1.944 1.237.994 2.295 1.16 2.076.326-.076-.291-.03-.596.101-.677s.24-.365.24-.629.179-.629.397-.811a1.23 1.23 0 0 0 .397-.826c0-.419.205-.497 1.301-.497 1.198 0 1.366.082 2.128 1.044.679.858.778 1.141.551 1.588l-.559 1.098c-.156.305-.245.587-.198.627s.858-.029 1.804-.152c1.027-.134 4.119-.102 7.673.08 6.141.314 7.938.211 7.938-.455 0-.657-1.272-.744-5.936-.406-6.019.435-8.087.1-8.087-1.311 0-.958.349-1.086 3.704-1.362 5.361-.44 9.226-.381 7.011.108-.291.064.435.06 1.614-.009 1.314-.077 2.338-.013 2.646.165.425.247.334.293-.594.3-.603.004-2.008.197-3.122.427-2.054.425-3.705.399-7.004-.11-.933-.144-2.094-.197-2.58-.118-.891.145-1.16.657-.552 1.051.182.118 3.213.214 6.736.214 5.772 0 6.451.046 6.875.468.71.708.162 1.309-1.665 1.826l-1.561.442 1.241.021c.683.012 1.316.142 1.407.29s.296.189.454.091c.188-.116.236.02.139.392-.082.314-.057.627.055.697.24.149.032 1.462-.232 1.462-.099 0-.129.441-.066.98l.114.98-.685-.449c-.622-.407-.706-.41-.92-.028-.194.346-.336.25-.806-.546-.314-.532-.69-.894-.835-.804s-.264.042-.264-.107c0-.371.836-.788 1.466-.732.354.031.545-.143.603-.551.119-.84-.575-1.016-1.808-.46-.71.32-1.41.424-2.235.331-.886-.1-1.201-.044-1.201.213 0 .192.119.422.265.512s.265.395.265.677c0 .395-.185.514-.802.514-.486 0-.865.164-.962.417-.11.287-.355.368-.785.26-.452-.113-.626-.046-.626.245a.4.4 0 0 1-.397.402c-.218 0-.397-.175-.397-.389 0-.236-.155-.329-.395-.237s-.468-.041-.577-.323c-.113-.294-.048-.519.17-.592.233-.078.139-.232-.28-.456l-.632-.338.723-.33c.612-.279.798-.262 1.208.109.267.241.714.433.993.425.467-.013.46-.048-.087-.429-.327-.228-.595-.57-.595-.759 0-.921-2.716-.673-4.2.385-.513.365-1.183.553-1.976.553-.66 0-1.274.119-1.364.265s-.395.265-.677.265-.514.105-.514.232c0 .344-1.306.762-2.514.805-.582.021-1.184.204-1.338.407-.232.307-.333.284-.598-.14-.349-.559-1.234-.682-1.525-.211-.125.203-.264.156-.434-.147-.192-.343-.333-.376-.612-.144-.2.166-.588.23-.862.143-.354-.112-.577.015-.765.436l-.265.594zm7.611-6.244c.058-.302-.037-.429-.265-.353-.196.065-.397.331-.447.59-.059.302.037.429.265.353.196-.065.397-.331.447-.59zm.453-1.081c-.659-.498-.966-.495-.773.008.084.218.407.393.719.388.555-.008.557-.016.053-.397zm1.043-.388c-.09-.146-.283-.265-.428-.265s-.191.119-.101.265.283.265.428.265.191-.119.101-.265zm-1.455-.646c0-.064-.119-.19-.265-.28s-.265-.037-.265.117.119.28.265.28.265-.053.265-.117zm-4.459-3.74c-.171-.375-.251-.778-.178-.896.125-.202-.818-.63-1.25-.568-.109.016-.198-.097-.198-.25s.367-.406.816-.563c.61-.212.783-.41.686-.78-.151-.576-.157-.575.73-.238.373.142.679.427.679.633 0 .53.681.726 1.475.424.372-.141 1.145-.257 1.717-.257 1.474 0 1.384-.377-.408-1.715-.579-.432-1.174-.815-1.323-.852l-1.195-.282c-.525-.122-.96-.403-1.008-.648-.06-.313.059-.395.432-.297.283.074.595.005.692-.153s.038-.288-.133-.288c-.186 0-.252-.224-.165-.557.124-.473.049-.538-.498-.434-.489.094-.644.009-.644-.354 0-.262.103-.541.229-.618s.172-.442.101-.809c-.126-.657.272-.926.596-.403.253.409.926.313.926-.132 0-.48.436-.528.608-.066.067.182.063.876-.009 1.542-.128 1.177-.1 1.234 1.01 2.051 1.381 1.015 1.668 1.048 1.5.168-.14-.732.323-2.336.816-2.829.17-.17.309-.464.309-.653 0-.236.414-.344 1.323-.344 1.343 0 1.392.029 2.762 1.637.334.392.317.578-.132 1.509-.282.584-.513 1.097-.513 1.141s1.399.087 3.109.097l7.393.132c3.271.087 4.365.033 4.628-.228.743-.738-.346-.875-5.538-.696-5.607.194-6.557.036-6.851-1.135-.244-.973.41-1.429 2.46-1.715 1.717-.24 6.44-.435 6.441-.267 0 .043-.387.258-.86.478-.643.298-.693.361-.198.249 1.86-.422 4.681-.468 5.405-.088s.681.397-1.602.615c-2.789.267-6.743.264-8.995-.006-1.791-.215-2.464.157-1.529.844.402.296 1.612.354 6.015.291 5.476-.079 5.515-.076 6.006.529.814 1.001.356 1.462-2.125 2.135l-.926.251 1.257.024c.728.014 1.257.147 1.257.317 0 .161.149.236.331.166.233-.089.347.256.387 1.162.031.709-.06 1.289-.202 1.289-.152 0-.188.433-.088 1.058.189 1.181-.155 1.405-.781.51l-.384-.548-.39.557c-.384.549-.397.543-.834-.378-.244-.515-.631-.935-.861-.935-.341 0-.357-.073-.087-.397.181-.218.672-.397 1.091-.397.627 0 .761-.112.761-.633 0-.841-.641-1.047-1.647-.527-.574.297-1.282.39-2.364.312-1.623-.117-1.855.067-1.116.884.609.673.278 1.287-.694 1.287-.481 0-.873.163-.965.402-.095.248-.421.375-.852.331-.445-.046-.673.048-.631.259.096.48-.642.407-.83-.083-.087-.228-.292-.331-.455-.231-.426.263-.771-.433-.584-1.179.111-.441.067-.579-.143-.45-.167.103-.303.059-.303-.099s.294-.42.654-.584c.563-.257.722-.213 1.149.314.361.446.633.557 1 .408.477-.194.473-.219-.091-.481-.344-.16-.595-.515-.595-.841 0-.492-.168-.571-1.314-.621-1.126-.049-1.443.056-2.218.736-.497.436-1.204.793-1.571.793-.378 0-1.158.409-1.797.943-.82.685-1.292.902-1.726.794-.355-.089-.758.011-.994.247-.353.353-.441.353-.794 0-.468-.468-1.384-.523-1.646-.098-.126.205-.26.164-.423-.128-.193-.345-.334-.367-.736-.116-.382.239-.586.236-.884-.011-.312-.259-.427-.231-.593.148-.113.258-.186.559-.163.668.105.494-.434.129-.713-.483zm7.634-6.485c0-.645-.618-.554-.747.11-.051.261.084.441.331.441s.416-.226.416-.551zm.529-1.008c0-.13-.188-.309-.419-.397-.647-.248-.733-.195-.375.236.365.44.794.527.794.161zm1.058-.557c0-.146-.119-.265-.265-.265s-.265.119-.265.265.119.265.265.265.265-.119.265-.265zm-1.323-.633c0-.057-.179-.173-.397-.256s-.397-.037-.397.104.179.256.397.256.397-.047.397-.104zm-2.117-3.72c0-.212-.31-.695-.69-1.074s-.647-.712-.595-.74c.831-.442 1.141-.713 1.086-.952-.074-.324.214-.368.838-.129.23.088.419.314.419.501 0 .46.546.634 1.191.379.291-.115.946-.223 1.455-.24 1.165-.038 2.434-.582 2.178-.933-.315-.43-1.337-.926-1.91-.926-.293 0-.533-.167-.533-.372 0-.251.186-.323.574-.222.464.121.54.062.397-.311-.097-.254-.177-.584-.177-.735s-.248-.209-.55-.13c-.438.115-.511.054-.359-.3.105-.244.247-.771.316-1.171.146-.851.219-.876.811-.283.416.416.45.416.53 0 .047-.244.183-.444.302-.444.406 0 .525.798.219 1.47-.26.57-.223.751.244 1.218l.549.549.3-1.288.375-1.621c.041-.183.216-.475.389-.648s.315-.529.315-.791c0-.381.217-.476 1.089-.476.91 0 1.231.155 1.952.943l.863.943-.497 1.029c-.273.566-.497 1.09-.497 1.165s.625.123 1.389.106 2.059.121 2.878.308c1.77.403 3.657.185 4.519-.522.566-.464.577-.527.167-.945-.315-.321-1.312-.542-3.519-.782-3.224-.35-4.111-.733-4.111-1.774 0-.789 1.252-2.238 2.572-2.975 1.46-.816 1.477-.817 1.252-.075-.16.527-.079.499.71-.248.996-.944 2.03-1.411 3.09-1.395l.71.011-.794.424c-.437.233-1.233.817-1.77 1.297-1.205 1.079-2.448 1.745-3.625 1.943-1.029.173-1.646.889-1.174 1.361.164.164 1.67.458 3.346.653s3.3.51 3.608.701c.719.445.968 1.42.504 1.978s-1.86 1.141-2.799 1.165c-.65.016-.674.045-.207.246.291.125.857.236 1.257.246s.728.145.728.299.119.207.265.117c.162-.1.265.306.265 1.043 0 .663-.098 1.206-.219 1.206s-.166.357-.102.794c.122.83-.145 1.015-.684.476-.243-.243-.39-.245-.629-.006s-.423.127-.791-.478c-.681-1.12-.675-1.167.191-1.317.554-.096.779-.286.779-.658 0-.679-.92-.862-1.353-.269-.251.343-.533.406-1.182.264-.76-.167-.83-.134-.65.306.532 1.297.501 1.419-.365 1.419-.504 0-.894.16-.988.405-.102.266-.337.347-.686.236-.317-.101-.632-.024-.783.191-.186.265-.285.277-.381.043-.071-.174-.285-.256-.475-.183-.39.15-.769-.596-.513-1.01.092-.149.017-.363-.167-.477-.243-.15-.169-.295.272-.531.521-.279.666-.249 1.028.208.3.378.575.475.951.335.511-.19.509-.203-.066-.386-.347-.11-.595-.403-.595-.701 0-.421-.189-.511-1.065-.511s-1.107.111-1.301.62c-.261.687-1.683 1.392-2.572 1.275-.319-.042-.681.116-.815.356s-.573.468-.978.512-.826.225-.935.401c-.145.234-.241.208-.358-.099-.185-.482-1.116-.563-1.389-.12-.125.203-.264.156-.434-.147-.196-.351-.329-.379-.625-.134-.288.239-.463.239-.75.001-.299-.248-.409-.202-.547.232-.198.622-.666.734-.666.158zm8.764-5.965l.066-.539c.018-.151.195-.374.392-.496.266-.164.279-.271.048-.414-.171-.106-.332-.15-.359-.099a68.25 68.25 0 0 1-.379.684c-.182.325-.331.712-.331.86 0 .348.519.351.562.004zm.232-2.233c0-.064-.119-.19-.265-.28s-.265-.037-.265.117.119.28.265.28.265-.053.265-.117zm55.827 34.833c0-1.661-.644-6.778-1.189-9.449-.661-3.24-2.633-8.935-4.215-12.171-6.659-13.627-18.689-22.636-31.836-23.842l-1.918-.176v23.452 23.452h19.579 19.579zm-21.967-1.793c-.142-.373-.258-.909-.258-1.191 0-.49-.241-.512-5.721-.512-5.093 0-5.684.044-5.387.403.211.254.537.339.882.229.522-.166.528-.144.131.457-.565.855-1.799 1.002-1.999.239-.103-.394-.276-.51-.576-.386-1.167.483-1.441.475-1.294-.039.079-.278.224-.698.321-.933.124-.299.008-.473-.386-.576-.764-.2-.617-1.434.239-1.999.602-.397.623-.391.457.131-.11.345-.025.671.229.882.359.298.403-.57.403-8.032v-8.367h-.772c-1.019 0-1.609-.243-1.609-.661s.59-.661 1.609-.661h.772v-7.705c0-6.678-.051-7.663-.381-7.389-.21.174-.316.486-.236.694.177.462-.473.504-.917.06s-.395-1.522.086-1.706c.301-.116.361-.381.235-1.05-.143-.764-.094-.895.338-.895.278 0 .646.14.817.311.239.239.436.198.848-.174.444-.402.65-.434 1.197-.185.76.346.908 1.292.197 1.259-1.168-.053-.306.583 1.82 1.342 5.451 1.946 11.261 6.268 15.212 11.315.793 1.013.825 1.026 1.44.595.751-.526 1.835-.581 1.835-.094 0 .392-.867 1.397-1.34 1.555-.198.066.025.63.612 1.548 2.786 4.359 5.021 10.019 6.077 15.39.487 2.479.682 3.052.975 2.871.214-.133.306-.457.221-.783-.183-.701.178-.712.863-.027.665.665.674 1.228.024 1.634-.389.243-.472.516-.362 1.193.157.969.132.988-.822.625-.553-.21-.692-.166-.829.265-.223.704-1.595.708-1.971.005-.371-.693-.358-.724.295-.7.313.012.62-.128.684-.31.09-.259-1.275-.331-6.257-.331h-6.372v.679c0 .792-.433 1.702-.81 1.702-.144 0-.378-.305-.52-.679zm-2.062-3.621c.068-.481.258-.598.986-.61.679-.011.954-.158 1.116-.595.278-.752.7-.739 1.052.032.22.483.441.589 1.045.5.624-.092.824.015 1.081.578l.315.69h4.729c4.594 0 4.721-.015 4.455-.512-.502-.938-.348-1.416.394-1.23.759.19.771.431-.175-3.418-1.257-5.112-4.302-11.751-5.522-12.039-.36-.085-.775-.388-.922-.672-.2-.388-.486-.497-1.143-.434l-.876.084.393-.76c.364-.703.354-.785-.127-1.085-.407-.254-.486-.51-.364-1.176.146-.796-.004-1.009-2.305-3.276-1.353-1.334-3.368-3.07-4.477-3.858-2.037-1.448-5.828-3.442-7.191-3.782-.704-.176-.732-.149-.556.549.178.708.154.728-.648.568l-.833-.167v5.521 5.521l.632.159c.741.186 1.057.822.713 1.436-.191.342-.072.506.561.772.672.283.75.402.475.734-.181.218-.507.396-.724.396-.275 0-.35.174-.246.572.2.765-.249 1.545-.891 1.545-.503 0-.52.216-.52 6.598v6.598l.97-.157c1.027-.167 1.001-.229.457 1.117-.139.343.401.397 3.95.397 4.062 0 4.112-.007 4.195-.595zm8.508-1.85c-.134-.183-.405-.656-.603-1.051s-.461-.656-.584-.58-.225.015-.225-.136c0-.258.461-.421 1.72-.608.656-.098.935-1.529.298-1.529-.219 0-.472.119-.562.265s-.513.265-.941.265c-.927 0-2.669-1.459-3.161-2.649-.357-.863-.677-.953-1.712-.481-.88.401-1.085 1.273-.546 2.315.501.969.357 1.344-.518 1.344-.347 0-.69.096-.762.214s-.794.204-1.603.191c-1.029-.016-1.471.079-1.471.315 0 .186-.179.338-.397.338s-.397-.165-.397-.367-.208-.351-.463-.331c-.342.027-.468-.17-.484-.757-.012-.459-.151-.766-.331-.728-.504.107-.356-.156.344-.615.614-.402.697-.395 1.359.126.439.346 1.09.554 1.728.554 1.176 0 1.213-.072.493-.986-1.478-1.879.515-4.069 3.168-3.48.505.112.96.162 1.011.112s-.647-.486-1.55-.968c-1.152-.614-1.744-1.116-1.983-1.679-.259-.612-.38-.704-.504-.385-.1.257-.481.419-.983.419-.46 0-.961.194-1.142.441s-.509.441-.737.441-.606.191-.84.425-.639.369-.9.301c-.382-.1-.466.024-.43.633.025.417-.036.757-.136.757-.262 0-1.057-.922-1.057-1.227 0-.142-.357-.234-.794-.204-.887.061-1.009-.275-.36-.991.353-.39.372-.553.1-.881-.288-.347-.202-.402.625-.402.527 0 .958.119.958.265 0 .653 1.181.159 2.251-.942l1.173-1.207-.914-.914c-.503-.503-1.084-1.239-1.293-1.637s-.627-.899-.931-1.113-.552-.541-.552-.728-.238-.338-.529-.338c-.31 0-.529-.176-.529-.425 0-.254.148-.368.368-.284.258.099.357-.055.331-.519-.03-.534-.15-.638-.632-.546s-.595-.006-.595-.511c0-.344.116-.625.258-.625.165 0 .169-.235.01-.652-.324-.853.037-1.051.734-.402.549.511.554.511.728-.036.289-.911.758-.118.691 1.169-.054 1.041.043 1.239 1.075 2.19.624.575 1.467 1.461 1.874 1.968.478.596.791.804.883.589.078-.183.549-.82 1.046-1.414s.837-1.189.755-1.321-.677-.239-1.323-.239c-1.387 0-1.654-.647-.381-.926.809-.178 1.014-.494.518-.801-.152-.094-.434-.039-.628.121-.456.379-1.149.106-1.352-.533-.193-.609.036-1.036.555-1.036.212 0 .621-.119.91-.265l1.014-.506c.363-.179.685-.08 1.257.387.423.346.918.633 1.099.638s.331.242.331.527.301.96.668 1.502c.92 1.356 1.053 2.08.697 3.804-.169.816-.307 1.844-.307 2.283 0 .974 1.206 2.85 3.175 4.942 1.175 1.248 1.628 1.555 2.353 1.591 1.768.088 1.387-.535-2.421-3.964-1.363-1.227-1.921-2.662-1.633-4.197.286-1.526.392-1.377 1.658 2.357.34 1.004.84 1.651 2.218 2.876 2.008 1.785 2.286 2.322 1.678 3.25-.511.779-2.06.895-3.017.225-.88-.616-.963-.297-.169.646.77.915 2.149 1.312 2.991.861.422-.226.632-.195.969.142.237.237.368.594.291.793-.083.215.035.363.29.363.388 0 .385.049-.025.502-.338.374-.368.53-.118.614.228.076.11.355-.367.869-.386.417-.62.885-.52 1.04.244.378.26 1.473.022 1.473-.513 0-1.026-.365-1.026-.73 0-.311-.118-.272-.495.162s-.552.493-.739.239zm-48.375-53.118c3.58-1.743 8-3.169 12.381-3.994 3.699-.697 13.417-.989 17.624-.531 7.406.807 15.101 3.309 20.266 6.589l.794.504 1.058-.728c1.464-1.007 2.412-2.061 2.896-3.22.791-1.893.435-3.315-1.22-4.875-3.513-3.312-14.331-5.119-30.648-5.119-21.973 0-33.285 3.193-32.172 9.081.248 1.313 1.062 2.431 2.714 3.727l1.522 1.195.805-.542c.443-.298 2.233-1.237 3.98-2.088zm10.48 101.761c-2.127-1.179-1.541-4.129.82-4.129 1.353 0 1.634 1.117.342 1.362-.318.06-.529.31-.529.626 0 .406.208.545.914.613 1.087.103 1.599-.436 1.599-1.684 0-1.235-.641-1.638-2.786-1.753-3.767-.202-9.537-3.715-12.946-7.882-3.67-4.486-5.541-9.108-5.772-14.256-.067-1.492-.216-2.277-.461-2.428-.293-.181-.301-.358-.043-.923.295-.647.278-.686-.226-.526-.837.266-1.842-.523-1.842-1.446 0-1.584 1.423-2.091 2.526-.9.401.433.65.559.653.331.01-.943.419-1.095 1.483-.553 4.548 2.32 8.518 2.331 15.136.043 1.746-.604 3.533-1.05 4.201-1.05 2.206 0 3.426 1.139 3.7 3.451.133 1.119.239 1.311.727 1.311.731 0 1.207.478 1.207 1.211 0 .693-.431 1.088-1.323 1.211l-.661.091-.228 10.441c-.166 7.608-.148 10.468.066 10.539.162.054.294.496.294.983 0 .922-.56 1.717-1.21 1.717-.236 0-.378.274-.379.728-.003 2.312-3.162 4.036-5.262 2.872zm-4.459-13.961l-7.099-10.217-2.627-3.778-.077 1.97c-.207 5.301 2.782 11.058 7.734 14.898 1.781 1.381 6.21 3.896 6.446 3.66.052-.052-1.918-2.992-4.377-6.533zm5.599 2.136l.16-1.432-4.906-7.011-5.361-7.605c-.41-.533-.608-.577-1.959-.428l-1.504.166 1.329 1.883 6.52 9.371c5.596 8.073 5.403 7.902 5.721 5.056zm1.199-7.385c.009-.303-6.273-9.548-6.944-10.22-.157-.157-2.327.425-2.663.715-.125.107 1.839 3.153 4.363 6.768l4.59 6.573.321-1.72c.177-.946.327-1.898.333-2.117zm.778-5.093c.18-1.201.393-2.451.471-2.778.112-.466.029-.595-.382-.595-.729 0-1.174-.623-1.072-1.505.072-.627.222-.757.959-.828.852-.082.872-.113.794-1.191-.08-1.106-.081-1.107-1.139-1.084-1.482.032-5.767 1.904-5.565 2.431.233.608 5.24 7.733 5.434 7.733.094 0 .319-.982.5-2.183zm23.083 23.33c-.45-.18-.587-.398-.488-.777.076-.289.03-.593-.102-.674-.373-.23-.283-.573.198-.758.261-.1.664.044.996.356.387.364.678.45.949.283.311-.192.324-.308.062-.57-.181-.181-.329-.662-.329-1.069 0-.841-.041-.856-1.22-.43-.655.237-.965.584-1.297 1.455-.423 1.107-.624 1.269-1.438 1.152-.211-.03-.535.153-.72.406-.31.424-.351.426-.505.024-.198-.516-1.177-.578-1.685-.107-.266.247-.31.249-.175.008.245-.436-1.964-.226-2.234.212-.134.216-.288.138-.496-.251-.166-.311-.209-.566-.095-.567s-.143-.233-.572-.516l-.78-.514.741-.282c.492-.187.69-.413.59-.675-.245-.638.544-.458 1.229.28.541.584.721.637 1.351.397.4-.152 1.072-.276 1.495-.276.574 0 .73-.1.616-.397-.084-.218-.312-.397-.507-.397s-.689-.446-1.096-.992c-1.083-1.45-1.252-1.596-1.952-1.696-.391-.055-.667-.294-.719-.619-.068-.432-.034-.457.185-.135.213.314.335.328.596.066.249-.249.252-.328.011-.328-.175 0-.317-.227-.317-.504 0-.387-.133-.47-.574-.354-.484.127-.541.071-.362-.356.117-.278.194-.833.173-1.233-.046-.842.099-.9.715-.283.416.416.45.416.53 0 .047-.244.186-.444.309-.444.344 0 .474.578.334 1.491-.106.698.046 1.007.961 1.95.869.895 1.095 1.021 1.122.626.127-1.844.319-2.674.709-3.064.173-.173.315-.51.315-.748 0-.324.275-.444 1.089-.476.94-.037 1.21.089 1.966.915.69.753.824 1.064.63 1.455l-.511 1.023c-.146.289-.265.58-.265.645s.923.1 2.051.077 3.308.06 4.844.185c2.775.227 4.747-.047 4.747-.66 0-.136-1.509-.244-3.422-.244-3.694 0-4.78-.23-4.78-1.011 0-.579.568-1.125 1.838-1.769.767-.389 1.251-.429 3.043-.25a43.75 43.75 0 0 0 4.115.184c1.742-.025 1.85-.001.888.199a37.97 37.97 0 0 0-2.495.644c-1.58.469-5.023.558-5.441.14-.19-.19-.471-.115-.913.244l-.638.519.717.275c.432.166 1.755.211 3.331.115 3.455-.21 4.551-.007 4.551.844 0 .859-.725 1.205-3.298 1.572l-2.123.303.858.507c.831.491 1.163 1.187.565 1.187-.161 0-.234.153-.163.339.167.436-1.271 1.886-1.643 1.656-.155-.096-.282.007-.282.229s-.238.531-.529.686c-.464.249-.529.201-.529-.388 0-.42-.148-.671-.397-.671a.4.4 0 0 1-.397-.397c0-.218.132-.397.293-.397s.221-.188.133-.418c-.131-.342.015-.402.807-.331.578.052 1.01-.039 1.074-.226.17-.495-.745-.798-2.047-.679l-1.196.11.099 1.038c.055.571.206 1.104.336 1.184s.237.377.237.66c0 .371-.183.514-.661.514-.431 0-.661.148-.661.426 0 .322-.161.385-.661.26-.381-.096-.661-.052-.661.104 0 .321-.19.319-1.022-.014zm-2.246-7.514c-.082-.214.043-.498.279-.63.379-.212.366-.273-.117-.532-.471-.252-.528-.224-.416.203.071.272 0 .575-.158.672-.43.266-.347.676.138.676.266 0 .369-.146.276-.39zm.093-1.843c0-.064-.119-.19-.265-.28s-.265-.037-.265.117.119.28.265.28.265-.053.265-.117zm11.835-.572c-.088-.088-.316-.097-.507-.021-.211.084-.148.147.16.16.279.012.435-.051.347-.139zm-17.626-3.368c-.164-.412-.239-.845-.167-.962.133-.215-.848-.631-1.297-.551-.134.024-.089-.142.099-.368s.506-.412.706-.412.364-.238.364-.529c0-.725.43-.663 1.206.173.609.657.717.683 1.672.397.561-.168 1.275-.306 1.585-.306.388 0 .565-.165.565-.529 0-.347-.176-.529-.514-.529-.282 0-.586-.117-.675-.261s-.423-.251-.743-.24c-1.067.037-2.167-.443-2.231-.974-.034-.281.006-.361.088-.179.174.384.899.45.899.082 0-.137-.127-.328-.283-.424s-.214-.354-.129-.574c.121-.314.011-.364-.511-.233-.747.187-.864-.135-.266-.734.247-.247.298-.462.132-.564-.483-.298-.311-1.001.196-.804.786.306.995.287.918-.082-.041-.196.078-.303.265-.239.211.072.339.587.339 1.367 0 1.361.517 2.005 1.608 2.005.423 0 .619-.198.722-.728.283-1.457.353-1.665.662-1.974.173-.173.315-.529.315-.791 0-.702 2.2-.676 2.844.034 1.22 1.344 1.213 1.322.796 2.383l-.391.997 4.395.225c6.043.309 8.925.267 9.413-.138.877-.728.063-.847-4.511-.657-4.037.167-4.674.137-5.262-.248-.411-.269-.668-.685-.668-1.081 0-.514.198-.701.992-.936 1.322-.39 8.007-.659 7.492-.301-.263.183.142.232 1.323.16l1.702-.104-2.381.635c-2.799.746-4.408.821-5.948.278-1.29-.455-2.454-.281-2.332.349.128.666 1.115.775 5.691.63 4.498-.142 5.103-.023 5.103 1.007 0 .56-.418.759-2.514 1.199l-1.588.333 1.654.026c1.017.016 1.654.139 1.654.319 0 .161.192.219.426.129.326-.125.383-.054.241.302-.102.256-.239.764-.305 1.127s-.268.781-.449.926a.76.76 0 0 0-.254.661c.041.218-.034.568-.169.777-.202.315-.316.321-.661.034-.318-.264-.505-.273-.785-.041-.296.245-.423.147-.648-.497-.154-.441-.431-.802-.617-.802s-.071-.186.254-.414.818-.342 1.096-.254c.365.116.555.003.685-.407.287-.904-.178-1.087-1.562-.615-.776.264-1.714.38-2.433.299-1.094-.123-1.51.09-.905.465.146.09.265.454.265.809 0 .522-.134.646-.698.646-.384 0-.847.204-1.03.453-.28.383-.397.398-.757.1-.418-.347-.572-.155-.457.572.057.362-.512.205-.66-.182-.08-.209-.304-.32-.497-.245-.377.145-.801-.79-.545-1.204.084-.136-.057-.295-.314-.354-.377-.087-.327-.175.26-.459.629-.304.792-.292 1.211.087.525.476 1.105.582 1.105.203 0-.13-.179-.305-.397-.389s-.397-.375-.397-.648c0-.412-.223-.503-1.321-.542-1.114-.039-1.411.058-1.9.619-.319.366-.855.666-1.193.666s-.614.119-.614.265-.16.265-.356.265-.561.226-.811.502c-.297.328-.782.493-1.395.476s-1.058.134-1.275.431c-.291.398-.355.405-.49.053-.187-.488-1.251-.533-1.745-.074-.215.2-.289.211-.187.028.093-.167-.001-.368-.209-.448s-.43-.003-.493.171c-.089.244-.239.243-.66-.005-.484-.285-.573-.24-.797.397l-.252.718-.298-.75zm6.934-6.246c.381-.764.336-1.074-.157-1.074-.137 0-.179.183-.093.407.089.232-.013.472-.236.557-.216.083-.392.316-.392.519 0 .627.471.407.878-.409zm1.431-1.234c-.088-.088-.316-.097-.507-.021-.211.084-.148.147.16.16.279.012.435-.051.347-.139zm-1.516-.486c0-.064-.119-.19-.265-.28s-.265-.037-.265.117.119.28.265.28.265-.053.265-.117zm10.125-3.345c-.11-.421-.198-.468-.372-.198-.329.51-.805-.259-.628-1.014.077-.329-.006-.62-.195-.683-.2-.067-.085-.241.29-.441.538-.288.7-.256 1.234.246.464.436.728.514 1.076.319.424-.237.416-.273-.097-.436-.307-.097-.632-.409-.722-.693-.261-.821-2.658-.724-3.962.161-.65.441-1.377.683-2.087.694-1.161.019-2.561.528-3.541 1.288-.329.255-.834.403-1.121.328-.328-.086-.583.02-.684.283-.142.37-.208.374-.551.03-.477-.477-1.444-.507-1.926-.059-.24.223-.299.229-.181.018.26-.464-.324-.71-.782-.33-.293.243-.474.252-.693.032s-.419-.156-.763.241l-.467.538-.296-.553c-.163-.304-.224-.67-.136-.812s.026-.259-.139-.259c-.292 0-1.055-.635-1.055-.878 0-.067.298-.197.661-.289s.661-.342.661-.558c0-.588 1.084-.484 1.241.119.188.721.711.846 1.863.445.548-.191 1.146-.296 1.328-.232.462.16.414-.589-.063-.985-.216-.18-.56-.263-.763-.185s-.699-.202-1.102-.622-.823-.708-.934-.64-.247-.013-.304-.182-.394-.338-.75-.376l-.846-.092c-.109-.012-.198-.19-.198-.394 0-.242.185-.324.529-.234.296.077.529.008.529-.157s-.133-.295-.295-.295c-.17 0-.234-.236-.15-.557.124-.473.049-.538-.498-.434-.489.094-.644.009-.644-.354 0-.262.103-.541.229-.618s.172-.442.101-.809c-.145-.761.058-.847.636-.268.473.473.989.25.766-.331-.134-.348-.094-.356.274-.05.317.263.393.633.29 1.404-.124.923-.041 1.14.693 1.826.757.707 1.746 1.25 2.278 1.25.113 0 .214-.544.224-1.21.011-.712.191-1.401.439-1.674.231-.256.42-.644.42-.864 0-.278.301-.411.992-.438 1.401-.054 1.777.115 2.569 1.153l.698.915-.498 1.125-.498 1.125 4.652.002c2.559.001 6.26.061 8.224.132 2.7.098 3.724.043 4.196-.225s.549-.429.317-.661c-.211-.211-1.23-.268-3.27-.184-6.471.267-9.287.175-10.053-.327-.752-.494-.943-1.336-.385-1.698.182-.118 1.521-.31 2.977-.428 3.627-.293 8.54-.396 7.918-.166-.28.104.502.149 1.739.101s1.951-.032 1.588.037-1.691.37-2.949.669c-1.742.415-2.751.507-4.233.385-5.241-.43-6.116-.451-6.409-.154-.223.226-.164.407.23.711.455.351 1.332.384 6.278.241 4.74-.137 5.912-.098 6.681.223.643.269.932.56.932.94 0 .619-.263.754-2.361 1.215l-1.475.324 1.455.036c1.884.046 2.341.397 2.236 1.717-.045.564-.19 1.097-.323 1.185s-.213.547-.178 1.019c.07.936-.158 1.076-.764.47-.343-.343-.43-.34-.73.021s-.395.299-.771-.47c-.236-.484-.591-.844-.789-.8-.295.067-.298.008-.017-.331.188-.227.684-.412 1.103-.412s.761-.109.761-.243.078-.446.173-.693c.153-.398.037-.428-.992-.263-.641.103-1.909.207-2.819.23s-1.654.136-1.654.25.189.496.42.848c.512.781.303 1.193-.605 1.193-.376 0-.832.204-1.014.453-.285.389-.393.402-.77.089-.383-.318-.458-.292-.589.208-.19.727-.623.739-.811.021zm-9.86-6.328c0-.558-.385-.712-.661-.265-.193.312.057.794.412.794.137 0 .249-.238.249-.529zm.529-1.03c0-.13-.188-.309-.419-.397-.647-.248-.733-.195-.375.236.365.44.794.527.794.161zm1.058-.41c0-.064-.119-.19-.265-.28s-.265-.037-.265.117.119.28.265.28.265-.053.265-.117zm-1.323-.781c0-.057-.179-.173-.397-.256s-.397-.037-.397.104.179.256.397.256.397-.047.397-.104zm15.539-.32c-.088-.088-.316-.097-.507-.021-.211.084-.148.147.16.16.279.012.435-.051.347-.139zm42.501-19.443c-1.542-.447-3.364-1.901-4.28-3.416-.802-1.327-.872-1.61-.789-3.204.109-2.098.965-3.443 2.693-4.227 1.507-.684 4.405-.671 5.945.028 3.966 1.8 5.675 5.77 3.773 8.769-1.032 1.627-2.528 2.347-4.81 2.315-.936-.013-2.076-.132-2.532-.264zm4.666-2.587a3.89 3.89 0 0 0 1.019-1.208c.769-1.569-1.246-4.421-3.627-5.134-1.405-.421-2.102-.379-3.382.202-3.018 1.37-1.497 5.368 2.535 6.66.953.306 2.674.047 3.455-.519zm-1.466-37.045c-3.921-1.781-3.561-7.234.643-9.743 3.209-1.916 6.472-1.293 7.919 1.511 1.109 2.148.353 4.806-1.94 6.825-2.067 1.819-4.552 2.347-6.622 1.407zm4.107-2.411c2.719-1.387 3.507-4.921 1.3-5.835-2.388-.989-5.79 1.394-5.792 4.058-.003 2.096 2.177 2.958 4.492 1.776zM148.829 89.04c-.946-1.269-1.847-2.76-2.003-3.314-.432-1.532-.017-3.324 1.349-5.83l1.225-2.247 1.312 1.868c1.857 2.644 2.616 4.175 2.616 5.275 0 .596-.489 1.98-1.304 3.69-.717 1.505-1.342 2.765-1.389 2.801s-.859-.973-1.805-2.242zm40.328-.067c-1.235-2.554-1.63-4.131-1.333-5.314.139-.552 2.935-5.038 3.633-5.827.116-.132.812.989 1.546 2.49 1.049 2.145 1.335 3.006 1.335 4.023 0 1.537-.329 2.225-2.401 5.02l-1.568 2.114zm-64.567.348c-1.573-.636-2.203-2.986-1.157-4.316.641-.815 2.066-1.334 3.013-1.096 1.109.278 2.012 1.563 2.002 2.847-.016 2.083-1.919 3.348-3.858 2.565zm89.459.009c-1.522-.623-2.132-2.71-1.217-4.167 1.182-1.883 4.108-1.671 4.957.36 1.009 2.415-1.328 4.794-3.74 3.807zm-91.017-6.922c-1.584-.914-1.964-3.031-.795-4.421.806-.958 1.748-1.227 2.934-.836 2.886.952 2.466 5.09-.552 5.439-.582.067-1.296-.015-1.587-.183zm92.023-.21c-1.883-1.182-1.671-4.108.36-4.957 2.814-1.176 5.336 2.167 3.33 4.413-.961 1.075-2.484 1.3-3.69.544zm-49.558-8.211V67.39l1.578.533 1.578.533.076 6.065.075 6.065h-1.654-1.654zm6.615.549v-6.048l1.587-.52 1.588-.52v6.569 6.569h-1.588-1.587zm-115.45-.431c-1.547-1.883-3.461-3.683-5.333-5.013-.517-.368-.508-.398.383-1.321.501-.519.991-.945 1.089-.945s.381.536.631 1.191.564 1.191.697 1.191.248-.566.254-1.257l.011-1.257.939 1.058c.517.582 1.187 1.403 1.489 1.824l.55.765-.95-.178c-.523-.098-1.017-.07-1.099.062-.244.395 1.84 1.663 2.985 1.816.937.126 1.165.043 1.898-.691.673-.673.801-.973.663-1.554-.248-1.047-1.117-1.714-1.775-1.361a1.81 1.81 0 0 0-.725.832c-.203.55-.208.549-.647-.076-.243-.347-.442-.883-.442-1.192 0-.62.76-1.437 1.337-1.437.203 0-.214-.513-.926-1.14-1.245-1.095-1.3-1.203-1.414-2.778-.106-1.467-.067-1.638.376-1.638 1.428.003 3.27 2.05 3.272 3.637.001.931.274 1.09.795.463.351-.423 1.251-.519 1.769-.189.173.11.443.539.601.954.268.705.249.745-.3.601-.773-.202-1.276.247-1.276 1.139 0 2.176 3.728 2.419 5.771.376.857-.857.901-.989.788-2.357-.066-.797-.183-1.512-.259-1.588-.347-.347-1.044.298-1.596 1.476-.332.708-.666 1.292-.743 1.298s-.581-.88-1.119-1.968l-.979-1.979 1.167.16c.642.088 1.483.08 1.87-.017.901-.226.597-.634-1.283-1.72l-1.356-.783 1.318-.57c2.138-.925 3.833-1.58 4.094-1.58.134 0 .088.446-.101.992-.54 1.557-.711 2.712-.402 2.712.566 0 1.308-.571 1.927-1.482.351-.517.698-.841.77-.721.243.402 1.256 3.87 1.159 3.966-.052.053-.527-.085-1.054-.305-.993-.415-2.087-.523-2.376-.235-.26.26.523 1.582 1.299 2.192 2.38 1.872 7.009-1.157 5.649-3.698-.36-.673-1.186-.652-1.672.043l-.389.555-.288-.538c-.38-.71-.366-1.712.03-2.107.175-.175.653-.318 1.062-.318h.745l-.716-1.082c-.829-1.253-.96-3.075-.308-4.306l.401-.757.965.848c.975.856 1.654 2.495 1.404 3.392l-.303 1.068c-.16.556-.125.589.358.331.295-.158.723-.287.951-.287.632 0 1.473.979 1.473 1.714 0 .601-.054.631-.654.358-.846-.386-1.463.085-1.463 1.116 0 .878 1.066 1.839 2.04 1.839 1.252 0 2.715-2.196 2.721-4.084.001-.454-.087-.428-.774.231l-.776.743-.136-.892c-.075-.491-.197-1.52-.271-2.288l-.135-1.395.952.999c1.117 1.172 1.444.837.683-.7l-.506-1.024 1.285-.17c.707-.094 1.39-.105 1.519-.026s.111.573-.05 1.135c-.305 1.064-.417 5.568-.201 8.093l.132 1.547-3.44.999c-7.263 2.109-14.243 4.991-20.387 8.418l-1.866 1.041-1.784-2.171zm67.004 1.113c-1.827-1.228-1.589-3.913.432-4.877.846-.403 1.052-.41 2.053-.063 2.262.782 2.644 3.802.636 5.027-1.111.678-2.022.652-3.121-.087zm90.882.357c-1.758-.749-2.231-3.108-.918-4.577.663-.742.947-.864 2.006-.864s1.343.122 2.006.864c1.049 1.175 1.067 2.637.044 3.771-.784.87-2.159 1.223-3.138.806zm-87.651-6.737c-1.282-.71-1.702-2.419-.952-3.869.51-.986 1.143-1.318 2.514-1.318.859 0 1.264.168 1.869.773 1.72 1.72.57 4.795-1.786 4.773-.557-.005-1.297-.167-1.645-.36zm84.138 0c-2.436-1.35-1.381-5.166 1.433-5.181 1.307-.007 2.177.567 2.68 1.771 1.018 2.435-1.743 4.724-4.113 3.41zm-50.215-1.116c-1.202-.593-1.822-2-1.441-3.272.432-1.441 1.172-1.989 2.685-1.989.982 0 1.429.146 1.953.638 1.46 1.372 1.045 3.914-.763 4.669-1.14.476-1.388.472-2.434-.045zm16.951.168c-.948-.383-1.69-1.57-1.69-2.704 0-1.315.342-1.953 1.318-2.458 1.291-.668 2.327-.513 3.339.5 1.53 1.53 1.121 3.73-.846 4.552-.995.416-1.321.432-2.12.11zm-129.2-1.232c-.302-.383-.548-.963-.548-1.287 0-1.015.978-1.984 2.004-1.984 1.245 0 1.965.77 1.965 2.102 0 .778-.149 1.148-.588 1.455-.933.654-2.194.527-2.832-.285zm105.487-2.098c-.813-.441-1.525-1.632-1.524-2.549.003-1.848 2.249-3.305 3.985-2.586.933.387 1.832 1.654 1.833 2.586.002 1.481-1.5 2.978-2.962 2.953-.335-.006-.934-.187-1.333-.404zm29.915-.039c-1.489-.924-1.729-3.001-.505-4.371.663-.742.947-.864 2.006-.864s1.343.122 2.006.864c1.131 1.265 1.083 2.714-.128 3.925-1.027 1.027-2.196 1.181-3.38.447zm-51.18-.335c-1.683-.68-2.218-3.042-1.013-4.474 1.698-2.017 4.879-.877 4.879 1.75 0 1.402-.56 2.321-1.644 2.699-.95.331-1.45.337-2.222.025zm34.769-.199c-1.758-.661-3.457-1.939-4.365-3.284-.854-1.265-1.546-2.817-1.346-3.017.07-.07 4.015-.096 8.767-.058l8.639.07-.763 1.587c-.921 1.918-2.608 3.605-4.396 4.398-1.803.8-4.841.941-6.536.303zm38.286.208c-1.44-.589-2.183-2.841-1.355-4.104 1.349-2.059 4.535-1.734 5.159.526.679 2.458-1.511 4.517-3.805 3.579zm-59.205-1.934c-.882-.717-1.245-1.883-.942-3.025.323-1.212 1.364-1.935 2.787-1.935 2.167 0 3.354 2.028 2.406 4.108-.659 1.447-2.953 1.906-4.252.851zm43.929-.175c-.742-.663-.864-.947-.864-2.006s.122-1.343.864-2.006c1.468-1.312 3.636-.948 4.439.746 1.349 2.843-2.086 5.37-4.439 3.267zm-50.638-.137c-1.123-.489-1.689-1.382-1.682-2.655.014-2.57 2.826-3.71 4.651-1.886 1.53 1.53 1.121 3.73-.846 4.552-1.06.443-1.079.443-2.123-.011zm59.253.196c-1.652-.322-2.629-2.61-1.754-4.108.657-1.125 1.552-1.579 2.818-1.428 1.998.237 3.065 2.209 2.189 4.045-.389.815-1.806 1.755-2.471 1.64l-.782-.148zm-150.814-.395c-1.461-.707-1.333-3.028.202-3.664 2.356-.976 3.986 2.622 1.667 3.679-.783.357-1.105.354-1.869-.016zm3.17-4.5c-1.306-.631-1.284-2.669.038-3.535 1.946-1.275 4.065 1.544 2.407 3.202-.687.687-1.487.796-2.445.333zm4.947-.742c-1.746-1.746 1.053-4.584 2.861-2.9.741.691.795 2.358.095 2.991-.679.615-2.3.564-2.956-.091zm6.335-.201c-.87-.778-.885-.829-.991-3.403-.059-1.438-.187-2.7-.285-2.805s-.591.337-1.097.982-.989 1.178-1.075 1.184-.473-.727-.861-1.627c-.808-1.872-.711-2.057 1.083-2.063.618-.002 1.124-.13 1.124-.284s-.432-.797-.959-1.428-.974-1.23-.992-1.331c-.047-.263 3.029-1.478 3.307-1.306.127.079.231.91.231 1.847s.089 1.699.198 1.693.734-.481 1.388-1.056l1.19-1.045.582 1.519c.877 2.287.886 2.272-1.132 2.055-1.682-.18-1.732-.168-1.46.339.155.289 1.045 1.133 1.978 1.876 1.84 1.464 2.018 1.735 2.018 3.076 0 1.261-.92 2.238-2.278 2.421-.941.126-1.205.04-1.97-.644zm18.29-3.142c-.727-.925-.693-1.829.101-2.622 1.209-1.209 3.147-.61 3.471 1.075.377 1.954-2.33 3.127-3.573 1.548zm80.681.234c.005-.888 1.249-3.117 2.353-4.217a9.77 9.77 0 0 1 3.928-2.325l.595-.175v3.59 3.59h-3.44c-3.1 0-3.439-.046-3.437-.463zm10.581-3.127v-3.59l.595.18c2.878.871 5.212 3.304 6.141 6.404l.178.595h-3.457-3.457zM68.06 51.746c-1.011-.795-1.024-2.372-.026-3.157.925-.727 1.829-.693 2.622.101 1.803 1.803-.597 4.629-2.596 3.056zm10.055-2.449c-.574-.436-1.016-1.663-.809-2.247.514-1.448 2.462-1.924 3.524-.862 1.618 1.618-.893 4.493-2.716 3.109zm-5.09-.769c-.809-.443-1.191-1.043-1.191-1.874 0-.882 1.043-2.054 1.828-2.054 2.186 0 3.068 2.575 1.305 3.81-.702.492-1.203.522-1.942.118zm93.703-4.06c1.159-1.209 2.25-3.095 2.577-4.453.166-.687.131-.734-.425-.563-1.424.436-3.411 1.58-4.534 2.611l-1.209 1.11-.077-4.676-.077-4.676 1.272 1.144c1.185 1.066 3.213 2.216 4.625 2.623.554.16.591.111.427-.574-.289-1.214-1.404-3.352-2.509-4.812l-1.03-1.361h4.658 4.658l-.437.595c-2.035 2.771-3.456 5.719-2.984 6.19.321.321 3.657-1.506 4.937-2.703l1.33-1.244v4.823 4.823l-1.372-1.234c-1.453-1.306-2.281-1.809-3.949-2.398-.935-.33-1.028-.322-1.026.088.005.893 1.317 3.249 2.533 4.549l1.241 1.326h-4.886-4.886z"/></svg>